<mxfile host="Electron" agent="Mozilla/5.0 (Windows NT 10.0; Win64; x64) AppleWebKit/537.36 (KHTML, like Gecko) draw.io/24.7.17 Chrome/128.0.6613.36 Electron/32.0.1 Safari/537.36" version="24.7.17">
  <diagram name="Page-1" id="HnS3AuSBfc-V0JqFdqot">
    <mxGraphModel dx="2876" dy="2363" grid="1" gridSize="10" guides="1" tooltips="1" connect="1" arrows="1" fold="1" page="1" pageScale="1" pageWidth="827" pageHeight="1169" math="0" shadow="0">
      <root>
        <mxCell id="0" />
        <mxCell id="1" parent="0" />
        <mxCell id="cPr7LlkB4Bg003HOVT_k-1" value="&lt;b&gt;&lt;font style=&quot;font-size: 24px;&quot;&gt;&lt;span style=&quot;white-space: pre;&quot;&gt;&#x9;&lt;/span&gt;DVoice Creation Workflow&lt;/font&gt;&lt;/b&gt;" style="rounded=0;whiteSpace=wrap;html=1;" vertex="1" parent="1">
          <mxGeometry x="-140" y="-10" width="1260" height="60" as="geometry" />
        </mxCell>
        <mxCell id="cPr7LlkB4Bg003HOVT_k-2" value="" style="rounded=0;whiteSpace=wrap;html=1;fillColor=#f5f5f5;fontColor=#333333;strokeColor=#666666;" vertex="1" parent="1">
          <mxGeometry x="-140" y="50" width="1260" height="2810" as="geometry" />
        </mxCell>
        <mxCell id="cPr7LlkB4Bg003HOVT_k-3" value="" style="strokeWidth=2;html=1;shape=mxgraph.flowchart.start_2;whiteSpace=wrap;" vertex="1" parent="1">
          <mxGeometry x="425" y="60" width="90" height="80" as="geometry" />
        </mxCell>
        <mxCell id="cPr7LlkB4Bg003HOVT_k-4" value="" style="ellipse;html=1;shape=endState;fillColor=#000000;strokeColor=#ff0000;" vertex="1" parent="1">
          <mxGeometry x="355" y="2710" width="70" height="70" as="geometry" />
        </mxCell>
        <mxCell id="cPr7LlkB4Bg003HOVT_k-5" value="Determine Language of Output" style="rounded=1;whiteSpace=wrap;html=1;" vertex="1" parent="1">
          <mxGeometry x="290" y="270" width="190" height="20" as="geometry" />
        </mxCell>
        <mxCell id="cPr7LlkB4Bg003HOVT_k-6" value="Determine Output File User Friendly Name" style="rounded=1;whiteSpace=wrap;html=1;" vertex="1" parent="1">
          <mxGeometry x="290" y="310" width="190" height="30" as="geometry" />
        </mxCell>
        <mxCell id="cPr7LlkB4Bg003HOVT_k-7" value="Identify if there is a need for bill 96 compliance" style="rounded=1;whiteSpace=wrap;html=1;" vertex="1" parent="1">
          <mxGeometry x="290" y="360" width="190" height="30" as="geometry" />
        </mxCell>
        <mxCell id="cPr7LlkB4Bg003HOVT_k-9" value="Determine if output needs to be translated in second official language" style="rounded=1;whiteSpace=wrap;html=1;" vertex="1" parent="1">
          <mxGeometry x="290" y="410" width="190" height="40" as="geometry" />
        </mxCell>
        <mxCell id="cPr7LlkB4Bg003HOVT_k-11" value="Rewrite Query" style="rounded=1;whiteSpace=wrap;html=1;" vertex="1" parent="1">
          <mxGeometry x="325" y="470" width="120" height="40" as="geometry" />
        </mxCell>
        <mxCell id="cPr7LlkB4Bg003HOVT_k-12" value="Uploaded&amp;nbsp;&lt;div&gt;Files?&lt;/div&gt;" style="strokeWidth=2;html=1;shape=mxgraph.flowchart.decision;whiteSpace=wrap;" vertex="1" parent="1">
          <mxGeometry x="345" y="530" width="80" height="70" as="geometry" />
        </mxCell>
        <mxCell id="cPr7LlkB4Bg003HOVT_k-14" value="" style="edgeStyle=segmentEdgeStyle;endArrow=classic;html=1;curved=0;rounded=0;endSize=8;startSize=8;exitX=0;exitY=0.5;exitDx=0;exitDy=0;exitPerimeter=0;entryX=0.5;entryY=0;entryDx=0;entryDy=0;" edge="1" parent="1" source="cPr7LlkB4Bg003HOVT_k-12" target="cPr7LlkB4Bg003HOVT_k-15">
          <mxGeometry width="50" height="50" relative="1" as="geometry">
            <mxPoint x="510" y="350" as="sourcePoint" />
            <mxPoint x="560" y="300" as="targetPoint" />
            <Array as="points" />
          </mxGeometry>
        </mxCell>
        <mxCell id="cPr7LlkB4Bg003HOVT_k-18" value="Yes" style="edgeLabel;html=1;align=center;verticalAlign=middle;resizable=0;points=[];" vertex="1" connectable="0" parent="cPr7LlkB4Bg003HOVT_k-14">
          <mxGeometry x="-0.2444" y="-1" relative="1" as="geometry">
            <mxPoint as="offset" />
          </mxGeometry>
        </mxCell>
        <mxCell id="cPr7LlkB4Bg003HOVT_k-15" value="" style="rounded=1;whiteSpace=wrap;html=1;fillColor=#d5e8d4;strokeColor=#82b366;" vertex="1" parent="1">
          <mxGeometry x="-50" y="610" width="430" height="2060" as="geometry" />
        </mxCell>
        <mxCell id="cPr7LlkB4Bg003HOVT_k-16" value="" style="rounded=1;whiteSpace=wrap;html=1;fillColor=#d5e8d4;strokeColor=#82b366;" vertex="1" parent="1">
          <mxGeometry x="590" y="610" width="430" height="2050" as="geometry" />
        </mxCell>
        <mxCell id="cPr7LlkB4Bg003HOVT_k-17" value="" style="edgeStyle=segmentEdgeStyle;endArrow=classic;html=1;curved=0;rounded=0;endSize=8;startSize=8;exitX=1;exitY=0.5;exitDx=0;exitDy=0;exitPerimeter=0;entryX=0.5;entryY=0;entryDx=0;entryDy=0;" edge="1" parent="1" source="cPr7LlkB4Bg003HOVT_k-12" target="cPr7LlkB4Bg003HOVT_k-16">
          <mxGeometry width="50" height="50" relative="1" as="geometry">
            <mxPoint x="570" y="542.5" as="sourcePoint" />
            <mxPoint x="480" y="587.5" as="targetPoint" />
            <Array as="points" />
          </mxGeometry>
        </mxCell>
        <mxCell id="cPr7LlkB4Bg003HOVT_k-20" value="No" style="edgeLabel;html=1;align=center;verticalAlign=middle;resizable=0;points=[];" vertex="1" connectable="0" parent="cPr7LlkB4Bg003HOVT_k-17">
          <mxGeometry x="-0.0065" y="2" relative="1" as="geometry">
            <mxPoint as="offset" />
          </mxGeometry>
        </mxCell>
        <mxCell id="cPr7LlkB4Bg003HOVT_k-21" value="&lt;font style=&quot;font-size: 16px;&quot;&gt;Parse files with&amp;nbsp;&lt;/font&gt;&lt;div style=&quot;font-size: 16px;&quot;&gt;&lt;font style=&quot;font-size: 16px;&quot;&gt;Docling and/or Azure Document Intelligence&lt;/font&gt;&lt;/div&gt;" style="rounded=1;whiteSpace=wrap;html=1;" vertex="1" parent="1">
          <mxGeometry x="17.5" y="680" width="285" height="80" as="geometry" />
        </mxCell>
        <mxCell id="cPr7LlkB4Bg003HOVT_k-22" value="&lt;font style=&quot;font-size: 14px;&quot;&gt;Extract content into Markdown from the parsed files&lt;/font&gt;" style="rounded=1;whiteSpace=wrap;html=1;" vertex="1" parent="1">
          <mxGeometry x="21" y="807.5" width="285" height="80" as="geometry" />
        </mxCell>
        <mxCell id="cPr7LlkB4Bg003HOVT_k-24" value="" style="rounded=1;whiteSpace=wrap;html=1;fillColor=#ffe6cc;strokeColor=#d79b00;" vertex="1" parent="1">
          <mxGeometry x="-40" y="930" width="400" height="1580" as="geometry" />
        </mxCell>
        <mxCell id="cPr7LlkB4Bg003HOVT_k-25" value="Start the DVoice Creation Process with uploaded files" style="rounded=1;whiteSpace=wrap;html=1;" vertex="1" parent="1">
          <mxGeometry x="10" y="940" width="310" height="40" as="geometry" />
        </mxCell>
        <mxCell id="cPr7LlkB4Bg003HOVT_k-26" value="Chunk Document(s) cohesively" style="rounded=1;whiteSpace=wrap;html=1;" vertex="1" parent="1">
          <mxGeometry x="91" y="990" width="150" height="40" as="geometry" />
        </mxCell>
        <mxCell id="cPr7LlkB4Bg003HOVT_k-27" value="Prepare list of chunks and metadata for summarization" style="rounded=1;whiteSpace=wrap;html=1;" vertex="1" parent="1">
          <mxGeometry x="91" y="1040" width="145" height="40" as="geometry" />
        </mxCell>
        <mxCell id="cPr7LlkB4Bg003HOVT_k-28" value="Create a high level summary for each file (useful to determine the necessary input files to answer a question)" style="rounded=1;whiteSpace=wrap;html=1;" vertex="1" parent="1">
          <mxGeometry x="91" y="1090" width="145" height="80" as="geometry" />
        </mxCell>
        <mxCell id="cPr7LlkB4Bg003HOVT_k-29" value="Break down the rewritten query into a list of subquery where applicable (can end up being just the same query)" style="rounded=1;whiteSpace=wrap;html=1;" vertex="1" parent="1">
          <mxGeometry x="91" y="1180" width="145" height="70" as="geometry" />
        </mxCell>
        <mxCell id="cPr7LlkB4Bg003HOVT_k-30" value="Determine from the query intent the expected number of output (we mean output not files)" style="rounded=1;whiteSpace=wrap;html=1;" vertex="1" parent="1">
          <mxGeometry x="91" y="1340" width="145" height="70" as="geometry" />
        </mxCell>
        <mxCell id="cPr7LlkB4Bg003HOVT_k-31" value="Associate each sub query to either &#39;summarization&#39;, &#39;rewriting&#39; or &#39;retrieval&#39; type of tasks" style="rounded=1;whiteSpace=wrap;html=1;" vertex="1" parent="1">
          <mxGeometry x="91" y="1260" width="145" height="70" as="geometry" />
        </mxCell>
        <mxCell id="cPr7LlkB4Bg003HOVT_k-32" value="&amp;gt; 1&amp;nbsp;&lt;div&gt;output&lt;/div&gt;" style="strokeWidth=2;html=1;shape=mxgraph.flowchart.decision;whiteSpace=wrap;" vertex="1" parent="1">
          <mxGeometry x="128.5" y="1440" width="62.5" height="50" as="geometry" />
        </mxCell>
        <mxCell id="cPr7LlkB4Bg003HOVT_k-33" value="" style="edgeStyle=segmentEdgeStyle;endArrow=classic;html=1;curved=0;rounded=0;endSize=8;startSize=8;exitX=0;exitY=0.5;exitDx=0;exitDy=0;exitPerimeter=0;entryX=0.425;entryY=0.014;entryDx=0;entryDy=0;entryPerimeter=0;" edge="1" parent="1" source="cPr7LlkB4Bg003HOVT_k-32" target="cPr7LlkB4Bg003HOVT_k-37">
          <mxGeometry width="50" height="50" relative="1" as="geometry">
            <mxPoint x="166" y="1480" as="sourcePoint" />
            <mxPoint x="81" y="1510" as="targetPoint" />
            <Array as="points" />
          </mxGeometry>
        </mxCell>
        <mxCell id="cPr7LlkB4Bg003HOVT_k-34" value="Yes" style="edgeLabel;html=1;align=center;verticalAlign=middle;resizable=0;points=[];" vertex="1" connectable="0" parent="cPr7LlkB4Bg003HOVT_k-33">
          <mxGeometry x="-0.2444" y="-1" relative="1" as="geometry">
            <mxPoint as="offset" />
          </mxGeometry>
        </mxCell>
        <mxCell id="cPr7LlkB4Bg003HOVT_k-35" value="" style="edgeStyle=segmentEdgeStyle;endArrow=classic;html=1;curved=0;rounded=0;endSize=8;startSize=8;exitX=1;exitY=0.5;exitDx=0;exitDy=0;exitPerimeter=0;entryX=0.5;entryY=0;entryDx=0;entryDy=0;" edge="1" parent="1" source="cPr7LlkB4Bg003HOVT_k-32" target="cPr7LlkB4Bg003HOVT_k-38">
          <mxGeometry width="50" height="50" relative="1" as="geometry">
            <mxPoint x="191" y="1460" as="sourcePoint" />
            <mxPoint x="221" y="1520" as="targetPoint" />
            <Array as="points" />
          </mxGeometry>
        </mxCell>
        <mxCell id="cPr7LlkB4Bg003HOVT_k-36" value="No" style="edgeLabel;html=1;align=center;verticalAlign=middle;resizable=0;points=[];" vertex="1" connectable="0" parent="cPr7LlkB4Bg003HOVT_k-35">
          <mxGeometry x="-0.0065" y="2" relative="1" as="geometry">
            <mxPoint as="offset" />
          </mxGeometry>
        </mxCell>
        <mxCell id="cPr7LlkB4Bg003HOVT_k-37" value="For each subquery (here we would iterate over each combination of subquery and tasks)" style="rounded=1;whiteSpace=wrap;html=1;" vertex="1" parent="1">
          <mxGeometry x="-31.75" y="1500" width="171" height="70" as="geometry" />
        </mxCell>
        <mxCell id="cPr7LlkB4Bg003HOVT_k-38" value="For only one query (we conduct the work below for just one query and associated task)&amp;nbsp;" style="rounded=1;whiteSpace=wrap;html=1;" vertex="1" parent="1">
          <mxGeometry x="190" y="1500" width="155" height="70" as="geometry" />
        </mxCell>
        <mxCell id="cPr7LlkB4Bg003HOVT_k-39" value="Determine the necessary input files from the user upload" style="rounded=1;whiteSpace=wrap;html=1;" vertex="1" parent="1">
          <mxGeometry x="111" y="1630" width="79" height="80" as="geometry" />
        </mxCell>
        <mxCell id="cPr7LlkB4Bg003HOVT_k-43" value="&amp;gt; 1 file" style="strokeWidth=2;html=1;shape=mxgraph.flowchart.decision;whiteSpace=wrap;" vertex="1" parent="1">
          <mxGeometry x="107" y="1720" width="62.5" height="50" as="geometry" />
        </mxCell>
        <mxCell id="cPr7LlkB4Bg003HOVT_k-44" value="" style="edgeStyle=segmentEdgeStyle;endArrow=classic;html=1;curved=0;rounded=0;endSize=8;startSize=8;entryX=0.5;entryY=0;entryDx=0;entryDy=0;entryPerimeter=0;exitX=0;exitY=0.5;exitDx=0;exitDy=0;exitPerimeter=0;" edge="1" parent="1" source="cPr7LlkB4Bg003HOVT_k-43" target="cPr7LlkB4Bg003HOVT_k-53">
          <mxGeometry width="50" height="50" relative="1" as="geometry">
            <mxPoint x="127.5" y="1740" as="sourcePoint" />
            <mxPoint x="103.5" y="1796" as="targetPoint" />
            <Array as="points" />
          </mxGeometry>
        </mxCell>
        <mxCell id="cPr7LlkB4Bg003HOVT_k-45" value="Yes" style="edgeLabel;html=1;align=center;verticalAlign=middle;resizable=0;points=[];" vertex="1" connectable="0" parent="cPr7LlkB4Bg003HOVT_k-44">
          <mxGeometry x="-0.2444" y="-1" relative="1" as="geometry">
            <mxPoint as="offset" />
          </mxGeometry>
        </mxCell>
        <mxCell id="cPr7LlkB4Bg003HOVT_k-47" value="" style="edgeStyle=segmentEdgeStyle;endArrow=classic;html=1;curved=0;rounded=0;endSize=8;startSize=8;exitX=1;exitY=0.5;exitDx=0;exitDy=0;exitPerimeter=0;entryX=0.5;entryY=0;entryDx=0;entryDy=0;" edge="1" parent="1" source="cPr7LlkB4Bg003HOVT_k-43" target="cPr7LlkB4Bg003HOVT_k-73">
          <mxGeometry width="50" height="50" relative="1" as="geometry">
            <mxPoint x="193.5" y="1726" as="sourcePoint" />
            <mxPoint x="223.5" y="1770" as="targetPoint" />
            <Array as="points" />
          </mxGeometry>
        </mxCell>
        <mxCell id="cPr7LlkB4Bg003HOVT_k-48" value="No" style="edgeLabel;html=1;align=center;verticalAlign=middle;resizable=0;points=[];" vertex="1" connectable="0" parent="cPr7LlkB4Bg003HOVT_k-47">
          <mxGeometry x="-0.0065" y="2" relative="1" as="geometry">
            <mxPoint as="offset" />
          </mxGeometry>
        </mxCell>
        <mxCell id="cPr7LlkB4Bg003HOVT_k-53" value="Task Type" style="strokeWidth=2;html=1;shape=mxgraph.flowchart.decision;whiteSpace=wrap;" vertex="1" parent="1">
          <mxGeometry x="22.5" y="1800" width="62.5" height="50" as="geometry" />
        </mxCell>
        <mxCell id="cPr7LlkB4Bg003HOVT_k-55" value="" style="edgeStyle=segmentEdgeStyle;endArrow=classic;html=1;curved=0;rounded=0;endSize=8;startSize=8;entryX=0.425;entryY=0.014;entryDx=0;entryDy=0;entryPerimeter=0;exitX=0;exitY=0.5;exitDx=0;exitDy=0;exitPerimeter=0;" edge="1" parent="1">
          <mxGeometry width="50" height="50" relative="1" as="geometry">
            <mxPoint x="10" y="1830" as="sourcePoint" />
            <mxPoint x="-14" y="1891" as="targetPoint" />
            <Array as="points" />
          </mxGeometry>
        </mxCell>
        <mxCell id="cPr7LlkB4Bg003HOVT_k-56" value="Summarization/&lt;div&gt;Rewriting&lt;/div&gt;" style="edgeLabel;html=1;align=center;verticalAlign=middle;resizable=0;points=[];" vertex="1" connectable="0" parent="cPr7LlkB4Bg003HOVT_k-55">
          <mxGeometry x="-0.2444" y="-1" relative="1" as="geometry">
            <mxPoint as="offset" />
          </mxGeometry>
        </mxCell>
        <mxCell id="cPr7LlkB4Bg003HOVT_k-57" value="" style="edgeStyle=segmentEdgeStyle;endArrow=classic;html=1;curved=0;rounded=0;endSize=8;startSize=8;exitX=1;exitY=0.5;exitDx=0;exitDy=0;exitPerimeter=0;entryX=0.5;entryY=0;entryDx=0;entryDy=0;" edge="1" parent="1" source="cPr7LlkB4Bg003HOVT_k-53" target="cPr7LlkB4Bg003HOVT_k-71">
          <mxGeometry width="50" height="50" relative="1" as="geometry">
            <mxPoint x="85" y="1820" as="sourcePoint" />
            <mxPoint x="118" y="1866" as="targetPoint" />
            <Array as="points" />
          </mxGeometry>
        </mxCell>
        <mxCell id="cPr7LlkB4Bg003HOVT_k-58" value="Retrieval" style="edgeLabel;html=1;align=center;verticalAlign=middle;resizable=0;points=[];" vertex="1" connectable="0" parent="cPr7LlkB4Bg003HOVT_k-57">
          <mxGeometry x="-0.0065" y="2" relative="1" as="geometry">
            <mxPoint as="offset" />
          </mxGeometry>
        </mxCell>
        <mxCell id="cPr7LlkB4Bg003HOVT_k-59" value="Enhance query for Summarization" style="rounded=1;whiteSpace=wrap;html=1;" vertex="1" parent="1">
          <mxGeometry x="-40" y="1890" width="90" height="70" as="geometry" />
        </mxCell>
        <mxCell id="cPr7LlkB4Bg003HOVT_k-60" value="Filter data only to the identified necessary input files" style="rounded=1;whiteSpace=wrap;html=1;" vertex="1" parent="1">
          <mxGeometry x="-40" y="1970" width="90" height="70" as="geometry" />
        </mxCell>
        <mxCell id="cPr7LlkB4Bg003HOVT_k-63" value="Count Tokens for summary input to make sure we are not over limit" style="rounded=1;whiteSpace=wrap;html=1;" vertex="1" parent="1">
          <mxGeometry x="-40" y="2050" width="90" height="70" as="geometry" />
        </mxCell>
        <mxCell id="cPr7LlkB4Bg003HOVT_k-64" value="Collate filtered documents into one input" style="rounded=1;whiteSpace=wrap;html=1;" vertex="1" parent="1">
          <mxGeometry x="-40" y="2128" width="90" height="70" as="geometry" />
        </mxCell>
        <mxCell id="cPr7LlkB4Bg003HOVT_k-65" value="Chunk Cohesively" style="rounded=1;whiteSpace=wrap;html=1;" vertex="1" parent="1">
          <mxGeometry x="-40" y="2210" width="90" height="70" as="geometry" />
        </mxCell>
        <mxCell id="cPr7LlkB4Bg003HOVT_k-66" value="Create Summary that answers the user&#39;s query following branding requirements" style="rounded=1;whiteSpace=wrap;html=1;" vertex="1" parent="1">
          <mxGeometry x="-40" y="2290" width="90" height="130" as="geometry" />
        </mxCell>
        <mxCell id="cPr7LlkB4Bg003HOVT_k-67" value="Translate primary content to other official language only when identified above" style="rounded=1;whiteSpace=wrap;html=1;" vertex="1" parent="1">
          <mxGeometry x="-30" y="2430" width="380" height="50" as="geometry" />
        </mxCell>
        <mxCell id="cPr7LlkB4Bg003HOVT_k-68" value="Revise Output" style="rounded=1;whiteSpace=wrap;html=1;" vertex="1" parent="1">
          <mxGeometry x="-10" y="2520" width="360" height="40" as="geometry" />
        </mxCell>
        <mxCell id="cPr7LlkB4Bg003HOVT_k-69" value="Save to Blob" style="rounded=1;whiteSpace=wrap;html=1;" vertex="1" parent="1">
          <mxGeometry x="-10" y="2620" width="360" height="20" as="geometry" />
        </mxCell>
        <mxCell id="cPr7LlkB4Bg003HOVT_k-70" value="Render to docx" style="rounded=1;whiteSpace=wrap;html=1;" vertex="1" parent="1">
          <mxGeometry x="-10" y="2570" width="360" height="40" as="geometry" />
        </mxCell>
        <mxCell id="cPr7LlkB4Bg003HOVT_k-71" value="Conduct RAG&amp;nbsp;" style="rounded=1;whiteSpace=wrap;html=1;" vertex="1" parent="1">
          <mxGeometry x="70" y="1890" width="120" height="30" as="geometry" />
        </mxCell>
        <mxCell id="cPr7LlkB4Bg003HOVT_k-73" value="Conduct Direct LLM Call Process" style="rounded=1;whiteSpace=wrap;html=1;" vertex="1" parent="1">
          <mxGeometry x="220" y="1890" width="120" height="30" as="geometry" />
        </mxCell>
        <mxCell id="cPr7LlkB4Bg003HOVT_k-74" value="Generate embeddings for lists of chunks" style="rounded=1;whiteSpace=wrap;html=1;" vertex="1" parent="1">
          <mxGeometry x="85" y="2020" width="90" height="50" as="geometry" />
        </mxCell>
        <mxCell id="cPr7LlkB4Bg003HOVT_k-75" value="Set up Vector DB and Index Embeddings of Chunks" style="rounded=1;whiteSpace=wrap;html=1;" vertex="1" parent="1">
          <mxGeometry x="85" y="2080" width="90" height="70" as="geometry" />
        </mxCell>
        <mxCell id="cPr7LlkB4Bg003HOVT_k-76" value="rewrite the sub query" style="rounded=1;whiteSpace=wrap;html=1;" vertex="1" parent="1">
          <mxGeometry x="85" y="2160" width="90" height="40" as="geometry" />
        </mxCell>
        <mxCell id="cPr7LlkB4Bg003HOVT_k-77" value="Generate embeddings for the query" style="rounded=1;whiteSpace=wrap;html=1;" vertex="1" parent="1">
          <mxGeometry x="85" y="2210" width="90" height="50" as="geometry" />
        </mxCell>
        <mxCell id="cPr7LlkB4Bg003HOVT_k-78" value="Retrieve up to k=20 chunks based on cosine semantic similarity" style="rounded=1;whiteSpace=wrap;html=1;" vertex="1" parent="1">
          <mxGeometry x="85" y="2270" width="90" height="80" as="geometry" />
        </mxCell>
        <mxCell id="cPr7LlkB4Bg003HOVT_k-79" value="&lt;font style=&quot;font-size: 8px;&quot;&gt;Generate answer based on the retrieval following branding requirements&lt;/font&gt;" style="rounded=1;whiteSpace=wrap;html=1;" vertex="1" parent="1">
          <mxGeometry x="85" y="2360" width="90" height="60" as="geometry" />
        </mxCell>
        <mxCell id="cPr7LlkB4Bg003HOVT_k-81" value="Filter data onlt to the identified necessary input files" style="rounded=1;whiteSpace=wrap;html=1;" vertex="1" parent="1">
          <mxGeometry x="85" y="1930" width="90" height="70" as="geometry" />
        </mxCell>
        <mxCell id="cPr7LlkB4Bg003HOVT_k-82" value="" style="edgeStyle=segmentEdgeStyle;endArrow=classic;html=1;curved=0;rounded=0;endSize=8;startSize=8;exitX=0.5;exitY=1;exitDx=0;exitDy=0;entryX=0.5;entryY=0;entryDx=0;entryDy=0;entryPerimeter=0;" edge="1" parent="1" source="cPr7LlkB4Bg003HOVT_k-39" target="cPr7LlkB4Bg003HOVT_k-43">
          <mxGeometry width="50" height="50" relative="1" as="geometry">
            <mxPoint x="260" y="1750" as="sourcePoint" />
            <mxPoint x="310" y="1700" as="targetPoint" />
          </mxGeometry>
        </mxCell>
        <mxCell id="cPr7LlkB4Bg003HOVT_k-83" value="" style="edgeStyle=segmentEdgeStyle;endArrow=classic;html=1;curved=0;rounded=0;endSize=8;startSize=8;exitX=0.5;exitY=1;exitDx=0;exitDy=0;" edge="1" parent="1" source="cPr7LlkB4Bg003HOVT_k-37" target="cPr7LlkB4Bg003HOVT_k-39">
          <mxGeometry width="50" height="50" relative="1" as="geometry">
            <mxPoint x="260" y="1650" as="sourcePoint" />
            <mxPoint x="310" y="1600" as="targetPoint" />
          </mxGeometry>
        </mxCell>
        <mxCell id="cPr7LlkB4Bg003HOVT_k-84" value="" style="edgeStyle=segmentEdgeStyle;endArrow=classic;html=1;curved=0;rounded=0;endSize=8;startSize=8;exitX=0.5;exitY=1;exitDx=0;exitDy=0;entryX=0.5;entryY=0;entryDx=0;entryDy=0;" edge="1" parent="1" source="cPr7LlkB4Bg003HOVT_k-38" target="cPr7LlkB4Bg003HOVT_k-39">
          <mxGeometry width="50" height="50" relative="1" as="geometry">
            <mxPoint x="209.95" y="1610" as="sourcePoint" />
            <mxPoint x="294.95" y="1630" as="targetPoint" />
          </mxGeometry>
        </mxCell>
        <mxCell id="cPr7LlkB4Bg003HOVT_k-85" value="&lt;h1 style=&quot;margin-top: 0px;&quot;&gt;&lt;font style=&quot;font-size: 12px;&quot;&gt;&lt;font style=&quot;&quot;&gt;Why a this separation with 1&amp;gt; output&lt;/font&gt;&lt;span style=&quot;background-color: initial; font-weight: normal;&quot;&gt;.&lt;/span&gt;&lt;/font&gt;&lt;/h1&gt;&lt;div&gt;&lt;span style=&quot;background-color: initial; font-weight: normal;&quot;&gt;&lt;font style=&quot;font-size: 12px;&quot;&gt;To be on the safe side, we want to ensure only one output is generated even when the list of tasks is &amp;gt; 1 (that can be the case when the LLM hallucinates and we thus made the decision to constrain the system towards one output&lt;/font&gt;&lt;/span&gt;&lt;/div&gt;" style="text;html=1;whiteSpace=wrap;overflow=hidden;rounded=0;" vertex="1" parent="1">
          <mxGeometry x="355" y="1490" width="165" height="230" as="geometry" />
        </mxCell>
        <mxCell id="cPr7LlkB4Bg003HOVT_k-86" value="Update Thread Flag - In Progress" style="rounded=1;whiteSpace=wrap;html=1;" vertex="1" parent="1">
          <mxGeometry x="100" y="170" width="740" height="20" as="geometry" />
        </mxCell>
        <mxCell id="cPr7LlkB4Bg003HOVT_k-87" value="Update Thread Flag - Completed" style="rounded=1;whiteSpace=wrap;html=1;" vertex="1" parent="1">
          <mxGeometry x="-10" y="2653" width="360" height="20" as="geometry" />
        </mxCell>
        <mxCell id="cPr7LlkB4Bg003HOVT_k-89" value="" style="edgeStyle=segmentEdgeStyle;endArrow=classic;html=1;curved=0;rounded=0;endSize=8;startSize=8;exitX=0.5;exitY=1;exitDx=0;exitDy=0;exitPerimeter=0;entryX=0.5;entryY=0;entryDx=0;entryDy=0;" edge="1" parent="1" source="cPr7LlkB4Bg003HOVT_k-3" target="cPr7LlkB4Bg003HOVT_k-86">
          <mxGeometry width="50" height="50" relative="1" as="geometry">
            <mxPoint x="260" y="390" as="sourcePoint" />
            <mxPoint x="310" y="340" as="targetPoint" />
          </mxGeometry>
        </mxCell>
        <mxCell id="cPr7LlkB4Bg003HOVT_k-90" value="" style="edgeStyle=segmentEdgeStyle;endArrow=classic;html=1;curved=0;rounded=0;endSize=8;startSize=8;exitX=0.5;exitY=1;exitDx=0;exitDy=0;entryX=0.5;entryY=0;entryDx=0;entryDy=0;" edge="1" parent="1" source="cPr7LlkB4Bg003HOVT_k-156" target="cPr7LlkB4Bg003HOVT_k-5">
          <mxGeometry width="50" height="50" relative="1" as="geometry">
            <mxPoint x="414" y="190" as="sourcePoint" />
            <mxPoint x="339" y="220" as="targetPoint" />
          </mxGeometry>
        </mxCell>
        <mxCell id="cPr7LlkB4Bg003HOVT_k-91" value="" style="edgeStyle=segmentEdgeStyle;endArrow=classic;html=1;curved=0;rounded=0;endSize=8;startSize=8;exitX=0.5;exitY=1;exitDx=0;exitDy=0;entryX=0.5;entryY=0;entryDx=0;entryDy=0;" edge="1" parent="1" source="cPr7LlkB4Bg003HOVT_k-5" target="cPr7LlkB4Bg003HOVT_k-6">
          <mxGeometry width="50" height="50" relative="1" as="geometry">
            <mxPoint x="190" y="420" as="sourcePoint" />
            <mxPoint x="240" y="370" as="targetPoint" />
          </mxGeometry>
        </mxCell>
        <mxCell id="cPr7LlkB4Bg003HOVT_k-92" value="" style="edgeStyle=segmentEdgeStyle;endArrow=classic;html=1;curved=0;rounded=0;endSize=8;startSize=8;exitX=0.5;exitY=1;exitDx=0;exitDy=0;entryX=0.5;entryY=0;entryDx=0;entryDy=0;" edge="1" parent="1" source="cPr7LlkB4Bg003HOVT_k-6" target="cPr7LlkB4Bg003HOVT_k-7">
          <mxGeometry width="50" height="50" relative="1" as="geometry">
            <mxPoint x="190" y="420" as="sourcePoint" />
            <mxPoint x="240" y="370" as="targetPoint" />
          </mxGeometry>
        </mxCell>
        <mxCell id="cPr7LlkB4Bg003HOVT_k-93" value="" style="edgeStyle=segmentEdgeStyle;endArrow=classic;html=1;curved=0;rounded=0;endSize=8;startSize=8;exitX=0.5;exitY=1;exitDx=0;exitDy=0;entryX=0.5;entryY=0;entryDx=0;entryDy=0;" edge="1" parent="1" source="cPr7LlkB4Bg003HOVT_k-7" target="cPr7LlkB4Bg003HOVT_k-9">
          <mxGeometry width="50" height="50" relative="1" as="geometry">
            <mxPoint x="190" y="420" as="sourcePoint" />
            <mxPoint x="240" y="370" as="targetPoint" />
          </mxGeometry>
        </mxCell>
        <mxCell id="cPr7LlkB4Bg003HOVT_k-94" value="" style="edgeStyle=segmentEdgeStyle;endArrow=classic;html=1;curved=0;rounded=0;endSize=8;startSize=8;exitX=0.5;exitY=1;exitDx=0;exitDy=0;entryX=0.5;entryY=0;entryDx=0;entryDy=0;" edge="1" parent="1" source="cPr7LlkB4Bg003HOVT_k-9" target="cPr7LlkB4Bg003HOVT_k-11">
          <mxGeometry width="50" height="50" relative="1" as="geometry">
            <mxPoint x="190" y="420" as="sourcePoint" />
            <mxPoint x="240" y="370" as="targetPoint" />
          </mxGeometry>
        </mxCell>
        <mxCell id="cPr7LlkB4Bg003HOVT_k-95" value="" style="edgeStyle=segmentEdgeStyle;endArrow=classic;html=1;curved=0;rounded=0;endSize=8;startSize=8;exitX=0.5;exitY=1;exitDx=0;exitDy=0;entryX=0.5;entryY=0;entryDx=0;entryDy=0;entryPerimeter=0;" edge="1" parent="1" source="cPr7LlkB4Bg003HOVT_k-11" target="cPr7LlkB4Bg003HOVT_k-12">
          <mxGeometry width="50" height="50" relative="1" as="geometry">
            <mxPoint x="190" y="670" as="sourcePoint" />
            <mxPoint x="240" y="620" as="targetPoint" />
          </mxGeometry>
        </mxCell>
        <mxCell id="cPr7LlkB4Bg003HOVT_k-96" value="" style="edgeStyle=segmentEdgeStyle;endArrow=classic;html=1;curved=0;rounded=0;endSize=8;startSize=8;exitX=0.5;exitY=0;exitDx=0;exitDy=0;" edge="1" parent="1" source="cPr7LlkB4Bg003HOVT_k-15" target="cPr7LlkB4Bg003HOVT_k-21">
          <mxGeometry width="50" height="50" relative="1" as="geometry">
            <mxPoint x="190" y="1040" as="sourcePoint" />
            <mxPoint x="240" y="990" as="targetPoint" />
          </mxGeometry>
        </mxCell>
        <mxCell id="cPr7LlkB4Bg003HOVT_k-97" value="" style="edgeStyle=segmentEdgeStyle;endArrow=classic;html=1;curved=0;rounded=0;endSize=8;startSize=8;exitX=0.5;exitY=1;exitDx=0;exitDy=0;entryX=0.5;entryY=0;entryDx=0;entryDy=0;" edge="1" parent="1" source="cPr7LlkB4Bg003HOVT_k-21" target="cPr7LlkB4Bg003HOVT_k-22">
          <mxGeometry width="50" height="50" relative="1" as="geometry">
            <mxPoint x="190" y="1040" as="sourcePoint" />
            <mxPoint x="240" y="990" as="targetPoint" />
          </mxGeometry>
        </mxCell>
        <mxCell id="cPr7LlkB4Bg003HOVT_k-99" value="" style="edgeStyle=segmentEdgeStyle;endArrow=classic;html=1;curved=0;rounded=0;endSize=8;startSize=8;exitX=0.5;exitY=1;exitDx=0;exitDy=0;entryX=0.475;entryY=0.031;entryDx=0;entryDy=0;entryPerimeter=0;" edge="1" parent="1" source="cPr7LlkB4Bg003HOVT_k-22" target="cPr7LlkB4Bg003HOVT_k-25">
          <mxGeometry width="50" height="50" relative="1" as="geometry">
            <mxPoint x="152.5" y="919.9999999999995" as="sourcePoint" />
            <mxPoint x="240" y="990" as="targetPoint" />
          </mxGeometry>
        </mxCell>
        <mxCell id="cPr7LlkB4Bg003HOVT_k-100" value="" style="edgeStyle=segmentEdgeStyle;endArrow=classic;html=1;curved=0;rounded=0;endSize=8;startSize=8;exitX=0.5;exitY=1;exitDx=0;exitDy=0;entryX=0.5;entryY=0;entryDx=0;entryDy=0;" edge="1" parent="1" source="cPr7LlkB4Bg003HOVT_k-25" target="cPr7LlkB4Bg003HOVT_k-26">
          <mxGeometry width="50" height="50" relative="1" as="geometry">
            <mxPoint x="190" y="1040" as="sourcePoint" />
            <mxPoint x="240" y="990" as="targetPoint" />
          </mxGeometry>
        </mxCell>
        <mxCell id="cPr7LlkB4Bg003HOVT_k-101" value="" style="edgeStyle=segmentEdgeStyle;endArrow=classic;html=1;curved=0;rounded=0;endSize=8;startSize=8;entryX=0.5;entryY=0;entryDx=0;entryDy=0;exitX=0.535;exitY=0.813;exitDx=0;exitDy=0;exitPerimeter=0;" edge="1" parent="1" source="cPr7LlkB4Bg003HOVT_k-26" target="cPr7LlkB4Bg003HOVT_k-27">
          <mxGeometry width="50" height="50" relative="1" as="geometry">
            <mxPoint x="190" y="1040" as="sourcePoint" />
            <mxPoint x="240" y="990" as="targetPoint" />
          </mxGeometry>
        </mxCell>
        <mxCell id="cPr7LlkB4Bg003HOVT_k-102" value="" style="edgeStyle=segmentEdgeStyle;endArrow=classic;html=1;curved=0;rounded=0;endSize=8;startSize=8;exitX=0.5;exitY=1;exitDx=0;exitDy=0;entryX=0.5;entryY=0;entryDx=0;entryDy=0;" edge="1" parent="1" source="cPr7LlkB4Bg003HOVT_k-27" target="cPr7LlkB4Bg003HOVT_k-28">
          <mxGeometry width="50" height="50" relative="1" as="geometry">
            <mxPoint x="190" y="1040" as="sourcePoint" />
            <mxPoint x="240" y="990" as="targetPoint" />
          </mxGeometry>
        </mxCell>
        <mxCell id="cPr7LlkB4Bg003HOVT_k-103" value="" style="edgeStyle=segmentEdgeStyle;endArrow=classic;html=1;curved=0;rounded=0;endSize=8;startSize=8;exitX=0.5;exitY=1;exitDx=0;exitDy=0;entryX=0.5;entryY=0;entryDx=0;entryDy=0;" edge="1" parent="1" source="cPr7LlkB4Bg003HOVT_k-28" target="cPr7LlkB4Bg003HOVT_k-29">
          <mxGeometry width="50" height="50" relative="1" as="geometry">
            <mxPoint x="230" y="1170" as="sourcePoint" />
            <mxPoint x="280" y="1120" as="targetPoint" />
          </mxGeometry>
        </mxCell>
        <mxCell id="cPr7LlkB4Bg003HOVT_k-104" value="" style="edgeStyle=segmentEdgeStyle;endArrow=classic;html=1;curved=0;rounded=0;endSize=8;startSize=8;exitX=0.5;exitY=1;exitDx=0;exitDy=0;entryX=0.5;entryY=0;entryDx=0;entryDy=0;" edge="1" parent="1" source="cPr7LlkB4Bg003HOVT_k-29" target="cPr7LlkB4Bg003HOVT_k-31">
          <mxGeometry width="50" height="50" relative="1" as="geometry">
            <mxPoint x="230" y="1170" as="sourcePoint" />
            <mxPoint x="280" y="1120" as="targetPoint" />
          </mxGeometry>
        </mxCell>
        <mxCell id="cPr7LlkB4Bg003HOVT_k-105" value="" style="edgeStyle=segmentEdgeStyle;endArrow=classic;html=1;curved=0;rounded=0;endSize=8;startSize=8;entryX=0.5;entryY=0;entryDx=0;entryDy=0;" edge="1" parent="1" target="cPr7LlkB4Bg003HOVT_k-30">
          <mxGeometry width="50" height="50" relative="1" as="geometry">
            <mxPoint x="160" y="1330" as="sourcePoint" />
            <mxPoint x="210" y="1280" as="targetPoint" />
          </mxGeometry>
        </mxCell>
        <mxCell id="cPr7LlkB4Bg003HOVT_k-106" value="" style="edgeStyle=segmentEdgeStyle;endArrow=classic;html=1;curved=0;rounded=0;endSize=8;startSize=8;exitX=0.5;exitY=1;exitDx=0;exitDy=0;entryX=0.5;entryY=0;entryDx=0;entryDy=0;entryPerimeter=0;" edge="1" parent="1" source="cPr7LlkB4Bg003HOVT_k-30" target="cPr7LlkB4Bg003HOVT_k-32">
          <mxGeometry width="50" height="50" relative="1" as="geometry">
            <mxPoint x="169.5" y="1430" as="sourcePoint" />
            <mxPoint x="219.5" y="1380" as="targetPoint" />
          </mxGeometry>
        </mxCell>
        <mxCell id="cPr7LlkB4Bg003HOVT_k-107" value="" style="edgeStyle=segmentEdgeStyle;endArrow=classic;html=1;curved=0;rounded=0;endSize=8;startSize=8;exitX=0.444;exitY=-0.125;exitDx=0;exitDy=0;exitPerimeter=0;entryX=0.5;entryY=0;entryDx=0;entryDy=0;" edge="1" parent="1" source="cPr7LlkB4Bg003HOVT_k-60" target="cPr7LlkB4Bg003HOVT_k-60">
          <mxGeometry width="50" height="50" relative="1" as="geometry">
            <mxPoint x="220" y="2280" as="sourcePoint" />
            <mxPoint x="270" y="2230" as="targetPoint" />
          </mxGeometry>
        </mxCell>
        <mxCell id="cPr7LlkB4Bg003HOVT_k-108" value="" style="edgeStyle=segmentEdgeStyle;endArrow=classic;html=1;curved=0;rounded=0;endSize=8;startSize=8;exitX=0.5;exitY=1;exitDx=0;exitDy=0;entryX=0.502;entryY=0.086;entryDx=0;entryDy=0;entryPerimeter=0;" edge="1" parent="1" source="cPr7LlkB4Bg003HOVT_k-60" target="cPr7LlkB4Bg003HOVT_k-63">
          <mxGeometry width="50" height="50" relative="1" as="geometry">
            <mxPoint y="2149.97" as="sourcePoint" />
            <mxPoint x="50" y="2099.97" as="targetPoint" />
          </mxGeometry>
        </mxCell>
        <mxCell id="cPr7LlkB4Bg003HOVT_k-109" value="" style="edgeStyle=segmentEdgeStyle;endArrow=classic;html=1;curved=0;rounded=0;endSize=8;startSize=8;exitX=0.5;exitY=1;exitDx=0;exitDy=0;entryX=0.489;entryY=0.063;entryDx=0;entryDy=0;entryPerimeter=0;" edge="1" parent="1" source="cPr7LlkB4Bg003HOVT_k-63" target="cPr7LlkB4Bg003HOVT_k-64">
          <mxGeometry width="50" height="50" relative="1" as="geometry">
            <mxPoint x="200" y="2030" as="sourcePoint" />
            <mxPoint x="250" y="1980" as="targetPoint" />
          </mxGeometry>
        </mxCell>
        <mxCell id="cPr7LlkB4Bg003HOVT_k-110" value="" style="edgeStyle=segmentEdgeStyle;endArrow=classic;html=1;curved=0;rounded=0;endSize=8;startSize=8;exitX=0.5;exitY=1;exitDx=0;exitDy=0;entryX=0.5;entryY=0;entryDx=0;entryDy=0;" edge="1" parent="1" source="cPr7LlkB4Bg003HOVT_k-64" target="cPr7LlkB4Bg003HOVT_k-65">
          <mxGeometry width="50" height="50" relative="1" as="geometry">
            <mxPoint x="200" y="2210" as="sourcePoint" />
            <mxPoint x="250" y="2160" as="targetPoint" />
          </mxGeometry>
        </mxCell>
        <mxCell id="cPr7LlkB4Bg003HOVT_k-111" value="" style="edgeStyle=segmentEdgeStyle;endArrow=classic;html=1;curved=0;rounded=0;endSize=8;startSize=8;exitX=0.5;exitY=1;exitDx=0;exitDy=0;entryX=0.5;entryY=0;entryDx=0;entryDy=0;" edge="1" parent="1" source="cPr7LlkB4Bg003HOVT_k-65" target="cPr7LlkB4Bg003HOVT_k-66">
          <mxGeometry width="50" height="50" relative="1" as="geometry">
            <mxPoint x="200" y="2210" as="sourcePoint" />
            <mxPoint x="250" y="2160" as="targetPoint" />
          </mxGeometry>
        </mxCell>
        <mxCell id="cPr7LlkB4Bg003HOVT_k-112" value="" style="edgeStyle=segmentEdgeStyle;endArrow=classic;html=1;curved=0;rounded=0;endSize=8;startSize=8;exitX=0.5;exitY=1;exitDx=0;exitDy=0;entryX=0.5;entryY=0;entryDx=0;entryDy=0;" edge="1" parent="1" source="cPr7LlkB4Bg003HOVT_k-66" target="cPr7LlkB4Bg003HOVT_k-67">
          <mxGeometry width="50" height="50" relative="1" as="geometry">
            <mxPoint x="200" y="2450" as="sourcePoint" />
            <mxPoint x="250" y="2400" as="targetPoint" />
          </mxGeometry>
        </mxCell>
        <mxCell id="cPr7LlkB4Bg003HOVT_k-113" value="" style="edgeStyle=segmentEdgeStyle;endArrow=classic;html=1;curved=0;rounded=0;endSize=8;startSize=8;exitX=0.5;exitY=1;exitDx=0;exitDy=0;entryX=0.5;entryY=0;entryDx=0;entryDy=0;" edge="1" parent="1" source="cPr7LlkB4Bg003HOVT_k-67" target="cPr7LlkB4Bg003HOVT_k-68">
          <mxGeometry width="50" height="50" relative="1" as="geometry">
            <mxPoint x="200" y="2450" as="sourcePoint" />
            <mxPoint x="250" y="2400" as="targetPoint" />
          </mxGeometry>
        </mxCell>
        <mxCell id="cPr7LlkB4Bg003HOVT_k-114" value="" style="edgeStyle=segmentEdgeStyle;endArrow=classic;html=1;curved=0;rounded=0;endSize=8;startSize=8;exitX=0.5;exitY=1;exitDx=0;exitDy=0;entryX=0.5;entryY=0;entryDx=0;entryDy=0;" edge="1" parent="1" source="cPr7LlkB4Bg003HOVT_k-68" target="cPr7LlkB4Bg003HOVT_k-70">
          <mxGeometry width="50" height="50" relative="1" as="geometry">
            <mxPoint x="200" y="2450" as="sourcePoint" />
            <mxPoint x="250" y="2400" as="targetPoint" />
          </mxGeometry>
        </mxCell>
        <mxCell id="cPr7LlkB4Bg003HOVT_k-115" value="" style="edgeStyle=segmentEdgeStyle;endArrow=classic;html=1;curved=0;rounded=0;endSize=8;startSize=8;exitX=0.5;exitY=1;exitDx=0;exitDy=0;" edge="1" parent="1" source="cPr7LlkB4Bg003HOVT_k-70">
          <mxGeometry width="50" height="50" relative="1" as="geometry">
            <mxPoint x="200" y="2450" as="sourcePoint" />
            <mxPoint x="170" y="2620" as="targetPoint" />
          </mxGeometry>
        </mxCell>
        <mxCell id="cPr7LlkB4Bg003HOVT_k-116" value="" style="edgeStyle=segmentEdgeStyle;endArrow=classic;html=1;curved=0;rounded=0;endSize=8;startSize=8;exitX=0.5;exitY=1;exitDx=0;exitDy=0;entryX=0.5;entryY=0;entryDx=0;entryDy=0;" edge="1" parent="1" source="cPr7LlkB4Bg003HOVT_k-69" target="cPr7LlkB4Bg003HOVT_k-87">
          <mxGeometry width="50" height="50" relative="1" as="geometry">
            <mxPoint x="200" y="2450" as="sourcePoint" />
            <mxPoint x="250" y="2400" as="targetPoint" />
          </mxGeometry>
        </mxCell>
        <mxCell id="cPr7LlkB4Bg003HOVT_k-117" value="" style="edgeStyle=segmentEdgeStyle;endArrow=classic;html=1;curved=0;rounded=0;endSize=8;startSize=8;exitX=0.5;exitY=1;exitDx=0;exitDy=0;entryX=0.5;entryY=0;entryDx=0;entryDy=0;" edge="1" parent="1" source="cPr7LlkB4Bg003HOVT_k-87" target="cPr7LlkB4Bg003HOVT_k-4">
          <mxGeometry width="50" height="50" relative="1" as="geometry">
            <mxPoint x="200" y="2570" as="sourcePoint" />
            <mxPoint x="250" y="2520" as="targetPoint" />
            <Array as="points">
              <mxPoint x="170" y="2690" />
              <mxPoint x="390" y="2690" />
            </Array>
          </mxGeometry>
        </mxCell>
        <mxCell id="cPr7LlkB4Bg003HOVT_k-118" value="Break down the rewritten query into a list of subquery where applicable (can end up being just the same query)" style="rounded=1;whiteSpace=wrap;html=1;" vertex="1" parent="1">
          <mxGeometry x="225" y="1930" width="110" height="100" as="geometry" />
        </mxCell>
        <mxCell id="cPr7LlkB4Bg003HOVT_k-119" value="Generate Response with no files in context following branding requirements" style="rounded=1;whiteSpace=wrap;html=1;" vertex="1" parent="1">
          <mxGeometry x="225" y="2040" width="110" height="380" as="geometry" />
        </mxCell>
        <mxCell id="cPr7LlkB4Bg003HOVT_k-121" value="" style="edgeStyle=segmentEdgeStyle;endArrow=classic;html=1;curved=0;rounded=0;endSize=8;startSize=8;exitX=0.5;exitY=1;exitDx=0;exitDy=0;entryX=0.52;entryY=0.077;entryDx=0;entryDy=0;entryPerimeter=0;" edge="1" parent="1" source="cPr7LlkB4Bg003HOVT_k-119" target="cPr7LlkB4Bg003HOVT_k-67">
          <mxGeometry width="50" height="50" relative="1" as="geometry">
            <mxPoint x="160" y="2240" as="sourcePoint" />
            <mxPoint x="210" y="2190" as="targetPoint" />
          </mxGeometry>
        </mxCell>
        <mxCell id="cPr7LlkB4Bg003HOVT_k-122" value="" style="edgeStyle=segmentEdgeStyle;endArrow=classic;html=1;curved=0;rounded=0;endSize=8;startSize=8;exitX=0.5;exitY=1;exitDx=0;exitDy=0;entryX=0.5;entryY=0;entryDx=0;entryDy=0;" edge="1" parent="1" source="cPr7LlkB4Bg003HOVT_k-118" target="cPr7LlkB4Bg003HOVT_k-119">
          <mxGeometry width="50" height="50" relative="1" as="geometry">
            <mxPoint x="160" y="1980" as="sourcePoint" />
            <mxPoint x="210" y="1930" as="targetPoint" />
          </mxGeometry>
        </mxCell>
        <mxCell id="cPr7LlkB4Bg003HOVT_k-123" value="" style="edgeStyle=segmentEdgeStyle;endArrow=classic;html=1;curved=0;rounded=0;endSize=8;startSize=8;exitX=0.5;exitY=1;exitDx=0;exitDy=0;entryX=0.5;entryY=0;entryDx=0;entryDy=0;" edge="1" parent="1" source="cPr7LlkB4Bg003HOVT_k-71" target="cPr7LlkB4Bg003HOVT_k-81">
          <mxGeometry width="50" height="50" relative="1" as="geometry">
            <mxPoint x="160" y="2150" as="sourcePoint" />
            <mxPoint x="210" y="2100" as="targetPoint" />
          </mxGeometry>
        </mxCell>
        <mxCell id="cPr7LlkB4Bg003HOVT_k-124" value="&lt;h1 style=&quot;margin-top: 0px;&quot;&gt;&lt;span style=&quot;font-size: 12px;&quot;&gt;This is very easy comparatively to when there are files that are uploaded&lt;/span&gt;&lt;/h1&gt;" style="text;html=1;whiteSpace=wrap;overflow=hidden;rounded=0;" vertex="1" parent="1">
          <mxGeometry x="470" y="585" width="290" height="110" as="geometry" />
        </mxCell>
        <mxCell id="cPr7LlkB4Bg003HOVT_k-125" value="&lt;font style=&quot;font-size: 19px;&quot;&gt;Conduct Direct LLM Call Process&lt;/font&gt;" style="rounded=1;whiteSpace=wrap;html=1;" vertex="1" parent="1">
          <mxGeometry x="635" y="652.5" width="350" height="55" as="geometry" />
        </mxCell>
        <mxCell id="cPr7LlkB4Bg003HOVT_k-127" value="&lt;font style=&quot;font-size: 16px;&quot;&gt;Break down the rewritten query into a list of subquery where applicable (can end up being just the same query)&lt;/font&gt;" style="rounded=1;whiteSpace=wrap;html=1;" vertex="1" parent="1">
          <mxGeometry x="645" y="707.5" width="330" height="100" as="geometry" />
        </mxCell>
        <mxCell id="cPr7LlkB4Bg003HOVT_k-129" value="&lt;font style=&quot;font-size: 28px;&quot;&gt;Generate Response with no files in context following branding requirements&lt;/font&gt;" style="rounded=1;whiteSpace=wrap;html=1;" vertex="1" parent="1">
          <mxGeometry x="625" y="850" width="360" height="1570" as="geometry" />
        </mxCell>
        <mxCell id="cPr7LlkB4Bg003HOVT_k-130" value="Revise Output" style="rounded=1;whiteSpace=wrap;html=1;" vertex="1" parent="1">
          <mxGeometry x="630" y="2500" width="360" height="40" as="geometry" />
        </mxCell>
        <mxCell id="cPr7LlkB4Bg003HOVT_k-131" value="Save to Blob" style="rounded=1;whiteSpace=wrap;html=1;" vertex="1" parent="1">
          <mxGeometry x="630" y="2600" width="360" height="20" as="geometry" />
        </mxCell>
        <mxCell id="cPr7LlkB4Bg003HOVT_k-132" value="Render to docx" style="rounded=1;whiteSpace=wrap;html=1;" vertex="1" parent="1">
          <mxGeometry x="630" y="2550" width="360" height="40" as="geometry" />
        </mxCell>
        <mxCell id="cPr7LlkB4Bg003HOVT_k-133" value="Update Thread Flag - Completed" style="rounded=1;whiteSpace=wrap;html=1;" vertex="1" parent="1">
          <mxGeometry x="630" y="2633" width="360" height="20" as="geometry" />
        </mxCell>
        <mxCell id="cPr7LlkB4Bg003HOVT_k-134" value="" style="edgeStyle=segmentEdgeStyle;endArrow=classic;html=1;curved=0;rounded=0;endSize=8;startSize=8;exitX=0.5;exitY=1;exitDx=0;exitDy=0;" edge="1" parent="1" source="cPr7LlkB4Bg003HOVT_k-81">
          <mxGeometry width="50" height="50" relative="1" as="geometry">
            <mxPoint x="191" y="2080" as="sourcePoint" />
            <mxPoint x="130" y="2020" as="targetPoint" />
          </mxGeometry>
        </mxCell>
        <mxCell id="cPr7LlkB4Bg003HOVT_k-135" value="" style="edgeStyle=segmentEdgeStyle;endArrow=classic;html=1;curved=0;rounded=0;endSize=8;startSize=8;exitX=0.5;exitY=1;exitDx=0;exitDy=0;entryX=0.5;entryY=0;entryDx=0;entryDy=0;" edge="1" parent="1" source="cPr7LlkB4Bg003HOVT_k-74" target="cPr7LlkB4Bg003HOVT_k-75">
          <mxGeometry width="50" height="50" relative="1" as="geometry">
            <mxPoint x="138.5" y="2070" as="sourcePoint" />
            <mxPoint x="188.5" y="2020" as="targetPoint" />
          </mxGeometry>
        </mxCell>
        <mxCell id="cPr7LlkB4Bg003HOVT_k-136" value="" style="edgeStyle=segmentEdgeStyle;endArrow=classic;html=1;curved=0;rounded=0;endSize=8;startSize=8;" edge="1" parent="1" target="cPr7LlkB4Bg003HOVT_k-76">
          <mxGeometry width="50" height="50" relative="1" as="geometry">
            <mxPoint x="127.5" y="2150" as="sourcePoint" />
            <mxPoint x="177.5" y="2100" as="targetPoint" />
          </mxGeometry>
        </mxCell>
        <mxCell id="cPr7LlkB4Bg003HOVT_k-137" value="" style="edgeStyle=segmentEdgeStyle;endArrow=classic;html=1;curved=0;rounded=0;endSize=8;startSize=8;entryX=0.5;entryY=0;entryDx=0;entryDy=0;" edge="1" parent="1" target="cPr7LlkB4Bg003HOVT_k-77">
          <mxGeometry width="50" height="50" relative="1" as="geometry">
            <mxPoint x="125" y="2200" as="sourcePoint" />
            <mxPoint x="175" y="2150" as="targetPoint" />
          </mxGeometry>
        </mxCell>
        <mxCell id="cPr7LlkB4Bg003HOVT_k-138" value="" style="edgeStyle=segmentEdgeStyle;endArrow=classic;html=1;curved=0;rounded=0;endSize=8;startSize=8;" edge="1" parent="1" target="cPr7LlkB4Bg003HOVT_k-78">
          <mxGeometry width="50" height="50" relative="1" as="geometry">
            <mxPoint x="119.5" y="2260" as="sourcePoint" />
            <mxPoint x="169.5" y="2210" as="targetPoint" />
          </mxGeometry>
        </mxCell>
        <mxCell id="cPr7LlkB4Bg003HOVT_k-139" value="" style="edgeStyle=segmentEdgeStyle;endArrow=classic;html=1;curved=0;rounded=0;endSize=8;startSize=8;entryX=0.5;entryY=0;entryDx=0;entryDy=0;" edge="1" parent="1" target="cPr7LlkB4Bg003HOVT_k-79">
          <mxGeometry width="50" height="50" relative="1" as="geometry">
            <mxPoint x="125" y="2350" as="sourcePoint" />
            <mxPoint x="175" y="2300" as="targetPoint" />
          </mxGeometry>
        </mxCell>
        <mxCell id="cPr7LlkB4Bg003HOVT_k-140" value="" style="edgeStyle=segmentEdgeStyle;endArrow=classic;html=1;curved=0;rounded=0;endSize=8;startSize=8;exitX=0.5;exitY=1;exitDx=0;exitDy=0;entryX=0.5;entryY=0;entryDx=0;entryDy=0;" edge="1" parent="1" source="cPr7LlkB4Bg003HOVT_k-127" target="cPr7LlkB4Bg003HOVT_k-129">
          <mxGeometry width="50" height="50" relative="1" as="geometry">
            <mxPoint x="230" y="900" as="sourcePoint" />
            <mxPoint x="280" y="850" as="targetPoint" />
          </mxGeometry>
        </mxCell>
        <mxCell id="cPr7LlkB4Bg003HOVT_k-141" value="" style="edgeStyle=segmentEdgeStyle;endArrow=classic;html=1;curved=0;rounded=0;endSize=8;startSize=8;entryX=0.5;entryY=0;entryDx=0;entryDy=0;" edge="1" parent="1" target="cPr7LlkB4Bg003HOVT_k-130">
          <mxGeometry width="50" height="50" relative="1" as="geometry">
            <mxPoint x="827" y="2480" as="sourcePoint" />
            <mxPoint x="877" y="2430" as="targetPoint" />
          </mxGeometry>
        </mxCell>
        <mxCell id="cPr7LlkB4Bg003HOVT_k-142" value="" style="edgeStyle=segmentEdgeStyle;endArrow=classic;html=1;curved=0;rounded=0;endSize=8;startSize=8;entryX=0.5;entryY=0;entryDx=0;entryDy=0;" edge="1" parent="1" target="cPr7LlkB4Bg003HOVT_k-132">
          <mxGeometry width="50" height="50" relative="1" as="geometry">
            <mxPoint x="800" y="2540" as="sourcePoint" />
            <mxPoint x="850" y="2490" as="targetPoint" />
          </mxGeometry>
        </mxCell>
        <mxCell id="cPr7LlkB4Bg003HOVT_k-143" value="" style="edgeStyle=segmentEdgeStyle;endArrow=classic;html=1;curved=0;rounded=0;endSize=8;startSize=8;exitX=0.5;exitY=1;exitDx=0;exitDy=0;entryX=0.5;entryY=0;entryDx=0;entryDy=0;" edge="1" parent="1" source="cPr7LlkB4Bg003HOVT_k-132" target="cPr7LlkB4Bg003HOVT_k-131">
          <mxGeometry width="50" height="50" relative="1" as="geometry">
            <mxPoint x="530" y="2510" as="sourcePoint" />
            <mxPoint x="580" y="2460" as="targetPoint" />
          </mxGeometry>
        </mxCell>
        <mxCell id="cPr7LlkB4Bg003HOVT_k-144" value="" style="edgeStyle=segmentEdgeStyle;endArrow=classic;html=1;curved=0;rounded=0;endSize=8;startSize=8;exitX=0.5;exitY=1;exitDx=0;exitDy=0;entryX=0.5;entryY=0;entryDx=0;entryDy=0;" edge="1" parent="1" source="cPr7LlkB4Bg003HOVT_k-131" target="cPr7LlkB4Bg003HOVT_k-133">
          <mxGeometry width="50" height="50" relative="1" as="geometry">
            <mxPoint x="530" y="2510" as="sourcePoint" />
            <mxPoint x="580" y="2460" as="targetPoint" />
          </mxGeometry>
        </mxCell>
        <mxCell id="cPr7LlkB4Bg003HOVT_k-145" value="" style="edgeStyle=segmentEdgeStyle;endArrow=classic;html=1;curved=0;rounded=0;endSize=8;startSize=8;exitX=0.5;exitY=1;exitDx=0;exitDy=0;entryX=0.5;entryY=0;entryDx=0;entryDy=0;" edge="1" parent="1" source="cPr7LlkB4Bg003HOVT_k-133" target="cPr7LlkB4Bg003HOVT_k-4">
          <mxGeometry width="50" height="50" relative="1" as="geometry">
            <mxPoint x="530" y="2510" as="sourcePoint" />
            <mxPoint x="390" y="2690" as="targetPoint" />
            <Array as="points">
              <mxPoint x="810" y="2670" />
              <mxPoint x="390" y="2670" />
              <mxPoint x="390" y="2710" />
            </Array>
          </mxGeometry>
        </mxCell>
        <mxCell id="cPr7LlkB4Bg003HOVT_k-146" value="Translate primary content to other official language only when identified above" style="rounded=1;whiteSpace=wrap;html=1;" vertex="1" parent="1">
          <mxGeometry x="620" y="2430" width="380" height="50" as="geometry" />
        </mxCell>
        <mxCell id="cPr7LlkB4Bg003HOVT_k-147" value="" style="edgeStyle=segmentEdgeStyle;endArrow=classic;html=1;curved=0;rounded=0;endSize=8;startSize=8;exitX=0.5;exitY=1;exitDx=0;exitDy=0;entryX=0.5;entryY=0;entryDx=0;entryDy=0;" edge="1" parent="1" source="cPr7LlkB4Bg003HOVT_k-129" target="cPr7LlkB4Bg003HOVT_k-146">
          <mxGeometry width="50" height="50" relative="1" as="geometry">
            <mxPoint x="730" y="2380" as="sourcePoint" />
            <mxPoint x="780" y="2330" as="targetPoint" />
          </mxGeometry>
        </mxCell>
        <mxCell id="cPr7LlkB4Bg003HOVT_k-148" value="" style="edgeStyle=segmentEdgeStyle;endArrow=classic;html=1;curved=0;rounded=0;endSize=8;startSize=8;exitX=0.5;exitY=1;exitDx=0;exitDy=0;entryX=0.487;entryY=0.039;entryDx=0;entryDy=0;entryPerimeter=0;" edge="1" parent="1" source="cPr7LlkB4Bg003HOVT_k-73" target="cPr7LlkB4Bg003HOVT_k-118">
          <mxGeometry width="50" height="50" relative="1" as="geometry">
            <mxPoint x="150" y="1940" as="sourcePoint" />
            <mxPoint x="200" y="1890" as="targetPoint" />
          </mxGeometry>
        </mxCell>
        <mxCell id="cPr7LlkB4Bg003HOVT_k-153" value="&lt;h1 style=&quot;margin-top: 0px;&quot;&gt;&lt;span style=&quot;font-size: 12px;&quot;&gt;OUTPUT: Generates only one docx output regardless of whether one or more output has been generated. All output reside in the same file&lt;/span&gt;&lt;/h1&gt;" style="text;html=1;whiteSpace=wrap;overflow=hidden;rounded=0;" vertex="1" parent="1">
          <mxGeometry x="445" y="2710" width="270" height="230" as="geometry" />
        </mxCell>
        <mxCell id="cPr7LlkB4Bg003HOVT_k-154" value="&lt;h1 style=&quot;margin-top: 0px;&quot;&gt;&lt;span style=&quot;font-size: 12px;&quot;&gt;INPUT: User Prompt and other creation preferences + uploaded files or no uploaded files for context&lt;/span&gt;&lt;/h1&gt;&lt;div&gt;&lt;b&gt;Format Supported: .docx, .txt, .pdf, pptx for next release&lt;/b&gt;&lt;span style=&quot;font-size: 12px;&quot;&gt;&lt;br&gt;&lt;/span&gt;&lt;/div&gt;" style="text;html=1;whiteSpace=wrap;overflow=hidden;rounded=0;" vertex="1" parent="1">
          <mxGeometry x="557" y="50" width="393" height="230" as="geometry" />
        </mxCell>
        <mxCell id="cPr7LlkB4Bg003HOVT_k-156" value="Process Branding Requirements User Preferences" style="rounded=1;whiteSpace=wrap;html=1;" vertex="1" parent="1">
          <mxGeometry x="290" y="210" width="190" height="40" as="geometry" />
        </mxCell>
        <mxCell id="cPr7LlkB4Bg003HOVT_k-157" value="" style="edgeStyle=segmentEdgeStyle;endArrow=classic;html=1;curved=0;rounded=0;endSize=8;startSize=8;exitX=0.5;exitY=1;exitDx=0;exitDy=0;entryX=0.5;entryY=0;entryDx=0;entryDy=0;" edge="1" parent="1" source="cPr7LlkB4Bg003HOVT_k-86" target="cPr7LlkB4Bg003HOVT_k-156">
          <mxGeometry width="50" height="50" relative="1" as="geometry">
            <mxPoint x="180" y="390" as="sourcePoint" />
            <mxPoint x="230" y="340" as="targetPoint" />
          </mxGeometry>
        </mxCell>
        <mxCell id="cPr7LlkB4Bg003HOVT_k-158" value="&lt;ul&gt;&lt;li&gt;This covers tone, content medium, length and other mandatory and optional requirements that are submitted by the user directly&lt;/li&gt;&lt;/ul&gt;" style="text;strokeColor=none;fillColor=none;html=1;whiteSpace=wrap;verticalAlign=middle;overflow=hidden;" vertex="1" parent="1">
          <mxGeometry x="500" y="200" width="280" height="80" as="geometry" />
        </mxCell>
        <mxCell id="cPr7LlkB4Bg003HOVT_k-159" value="&lt;ul&gt;&lt;li&gt;&lt;b&gt;Revision: Following the 4 static guidelines provided&lt;/b&gt;&lt;/li&gt;&lt;/ul&gt;" style="text;strokeColor=none;fillColor=none;html=1;whiteSpace=wrap;verticalAlign=middle;overflow=hidden;" vertex="1" parent="1">
          <mxGeometry x="332.5" y="2490" width="287.5" height="80" as="geometry" />
        </mxCell>
      </root>
    </mxGraphModel>
  </diagram>
</mxfile>
